<svg width="20" height="21" viewBox="0 0 20 21" fill="none" xmlns="http://www.w3.org/2000/svg">
<path d="M14.192 10.9423L7.94205 17.1923C7.88398 17.2504 7.81504 17.2964 7.73917 17.3278C7.6633 17.3593 7.58198 17.3755 7.49986 17.3755C7.41774 17.3755 7.33642 17.3593 7.26055 17.3278C7.18468 17.2964 7.11574 17.2504 7.05767 17.1923C6.9996 17.1342 6.95354 17.0653 6.92211 16.9894C6.89069 16.9135 6.87451 16.8322 6.87451 16.7501C6.87451 16.668 6.89069 16.5867 6.92211 16.5108C6.95354 16.4349 6.9996 16.366 7.05767 16.3079L12.8663 10.5001L7.05767 4.69229C6.9404 4.57502 6.87451 4.41596 6.87451 4.2501C6.87451 4.08425 6.9404 3.92519 7.05767 3.80792C7.17495 3.69064 7.33401 3.62476 7.49986 3.62476C7.66571 3.62476 7.82477 3.69064 7.94205 3.80792L14.192 10.0579C14.2502 10.116 14.2963 10.1849 14.3277 10.2608C14.3592 10.3366 14.3754 10.418 14.3754 10.5001C14.3754 10.5822 14.3592 10.6636 14.3277 10.7394C14.2963 10.8153 14.2502 10.8842 14.192 10.9423Z" fill="#549BA0"/>
</svg>
